# xmcd
#
# Track frame offsets: 
#        150
#        10787
#        22147
#        33623
#        44742
#        55953
#        68729
#        81635
#        97340
#        107558
#        120728
#        132656
#
# Disc length: 1947 seconds
#
# Revision: 0
# Processed by: cddbd v1.5.2PL0 Copyright (c) Steve Scherf et al.
# Submitted via: ExactAudioCopy v0.99pb4
#
DISCID=b507990c
DTITLE=Howlin' Wolf - The Rockin' Chair Album
DYEAR=1962
DGENRE=Blues
TTITLE0=Shake For Me
TTITLE1=The Red Rooster
TTITLE2=You'll Be Mine
TTITLE3=Who's Been Talkin'
TTITLE4=Wang Dang Doodle
TTITLE5=Little Baby
TTITLE6=Spoonful
TTITLE7=Going Down Slow
TTITLE8=Down in the Bottom
TTITLE9=Back Door Man
TTITLE10=Howlin' for My Baby
TTITLE11=Tell Me
EXTD=
EXTT0=
EXTT1=
EXTT2=
EXTT3=
EXTT4=
EXTT5=
EXTT6=
EXTT7=
EXTT8=
EXTT9=
EXTT10=
EXTT11=
PLAYORDER=
